<svg xmlns="http://www.w3.org/2000/svg" xmlns:xlink="http://www.w3.org/1999/xlink" viewBox="0 0 32 32"><defs><style>.cls-1{fill:url(#linear-gradient);}.cls-2{fill:#fff;}</style><linearGradient id="linear-gradient" x1="16" y1="34.23" x2="16" y2="2.23" gradientTransform="matrix(1, 0, 0, -1, 0, 34.23)" gradientUnits="userSpaceOnUse"><stop offset="0" stop-color="#13244e"/><stop offset="1" stop-color="#75c5f0"/></linearGradient></defs><title>Asset 4</title><g id="Layer_2" data-name="Layer 2"><g id="Layer_1-2" data-name="Layer 1"><circle class="cls-1" cx="16" cy="16" r="16"/><path class="cls-2" d="M16,21.42c2.35,0,3.76-1.4,3.76-3.1a2.93,2.93,0,0,0-2.11-2.83l-1.43-.59c-.86-.36-1.66-.66-1.66-1.48s.65-1.23,1.65-1.23a3.42,3.42,0,0,1,2.27.9l.94-1.19a4.6,4.6,0,0,0-3.21-1.32c-2,0-3.52,1.28-3.52,2.94a3,3,0,0,0,2.11,2.78l1.44.63c.94.4,1.61.67,1.61,1.53s-.64,1.35-1.82,1.35a4.14,4.14,0,0,1-2.72-1.19l-1.09,1.27A5.44,5.44,0,0,0,16,21.42Z"/></g></g></svg>