<svg xmlns="http://www.w3.org/2000/svg" xmlns:xlink="http://www.w3.org/1999/xlink" viewBox="0 0 32 32"><defs><style>.cls-1{fill:url(#linear-gradient);}.cls-2{fill:#fff;}</style><linearGradient id="linear-gradient" x1="16" y1="34" x2="16" y2="2" gradientTransform="matrix(1, 0, 0, -1, 0, 34)" gradientUnits="userSpaceOnUse"><stop offset="0" stop-color="#13244e"/><stop offset="1" stop-color="#75c5f0"/></linearGradient></defs><title>Asset 2</title><g id="Layer_2" data-name="Layer 2"><g id="Layer_1-2" data-name="Layer 1"><circle class="cls-1" cx="16" cy="16" r="16"/><path class="cls-2" d="M16.38,21.19c2.36,0,3.76-1.41,3.76-3.1A2.92,2.92,0,0,0,18,15.26l-1.42-.6c-.87-.35-1.67-.65-1.67-1.47S15.6,12,16.59,12a3.4,3.4,0,0,1,2.27.9l.95-1.19a4.66,4.66,0,0,0-3.22-1.33c-2.05,0-3.52,1.28-3.52,2.95a3,3,0,0,0,2.11,2.78l1.44.63c.95.4,1.62.67,1.62,1.53s-.64,1.35-1.82,1.35a4.14,4.14,0,0,1-2.72-1.19l-1.09,1.27A5.41,5.41,0,0,0,16.38,21.19Z"/></g></g></svg>