<svg xmlns="http://www.w3.org/2000/svg" xmlns:xlink="http://www.w3.org/1999/xlink" viewBox="0 0 526.57 526.57"><defs><style>.cls-1{fill:url(#linear-gradient);}.cls-2{fill:#fff;}</style><linearGradient id="linear-gradient" x1="263.29" y1="661.15" x2="263.29" y2="134.57" gradientTransform="matrix(1, 0, 0, -1, 0, 661.15)" gradientUnits="userSpaceOnUse"><stop offset="0" stop-color="#13244e"/><stop offset="1" stop-color="#75c5f0"/></linearGradient></defs><title>Asset 1</title><g id="Layer_2" data-name="Layer 2"><g id="Layer_1-2" data-name="Layer 1"><circle class="cls-1" cx="263.29" cy="263.29" r="263.29"/><path class="cls-2" d="M269.61,348.72c38.7,0,61.87-23.17,61.87-51.07,0-25-14.48-37.92-34.76-46.61l-23.43-9.74c-14.22-5.79-27.38-10.79-27.38-24.22,0-12.64,10.8-20.27,27.12-20.27,14.74,0,26.33,5.53,37.39,14.74L326,192.07A76,76,0,0,0,273,170.22c-33.7,0-57.92,21.06-57.92,48.44,0,25.28,17.9,38.7,34.75,45.81l23.7,10.27c15.53,6.58,26.59,11.06,26.59,25.28,0,13.42-10.53,22.11-30,22.11-15.79,0-32.38-7.9-44.76-19.48l-17.9,20.8A89.13,89.13,0,0,0,269.61,348.72Z"/></g></g></svg>