<?xml version="1.0" encoding="utf-8"?>
<!-- Generator: Adobe Illustrator 23.1.0, SVG Export Plug-In . SVG Version: 6.00 Build 0)  -->
<svg version="1.1" id="Layer_1" xmlns="http://www.w3.org/2000/svg" xmlns:xlink="http://www.w3.org/1999/xlink" x="0px" y="0px"
	 viewBox="0 0 137 32" style="enable-background:new 0 0 137 32;" xml:space="preserve">
<style type="text/css">
	.st0{fill:url(#SVGID_1_);}
	.st1{fill:#FFFFFF;}
</style>
<linearGradient id="SVGID_1_" gradientUnits="userSpaceOnUse" x1="16" y1="34" x2="16" y2="2" gradientTransform="matrix(1 0 0 -1 0 34)">
	<stop  offset="0" style="stop-color:#13244E"/>
	<stop  offset="1" style="stop-color:#75C5F0"/>
</linearGradient>
<circle class="st0" cx="16" cy="16" r="16"/>
<path class="st1" d="M16.4,21.2c2.4,0,3.8-1.4,3.8-3.1c0-1.5-0.9-2.3-2.1-2.8l-1.4-0.6c-0.9-0.4-1.7-0.7-1.7-1.5
	c0-0.8,0.7-1.2,1.6-1.2c0.9,0,1.6,0.3,2.3,0.9l0.9-1.2c-0.9-0.8-2-1.3-3.2-1.3c-2,0-3.5,1.3-3.5,2.9c0,1.5,1.1,2.4,2.1,2.8l1.4,0.6
	c0.9,0.4,1.6,0.7,1.6,1.5c0,0.8-0.6,1.3-1.8,1.3c-1,0-2-0.5-2.7-1.2l-1.1,1.3C13.6,20.6,15,21.2,16.4,21.2z"/>
</svg>
