<?xml version="1.0" encoding="utf-8"?>
<!-- Generator: Adobe Illustrator 23.1.0, SVG Export Plug-In . SVG Version: 6.00 Build 0)  -->
<svg version="1.1" id="Layer_1" xmlns="http://www.w3.org/2000/svg" xmlns:xlink="http://www.w3.org/1999/xlink" x="0px" y="0px"
	 viewBox="0 0 1920 1080" style="enable-background:new 0 0 1920 1080;" xml:space="preserve">
<style type="text/css">
	.st0{fill:url(#SVGID_1_);}
	.st1{fill:#FFFFFF;}
</style>
<linearGradient id="SVGID_1_" gradientUnits="userSpaceOnUse" x1="492.8157" y1="661.4717" x2="492.8157" y2="555.1031" gradientTransform="matrix(1 0 0 -1 0 1082)">
	<stop  offset="0" style="stop-color:#13244E"/>
	<stop  offset="1" style="stop-color:#75C5F0"/>
</linearGradient>
<circle class="st0" cx="492.8" cy="473.7" r="53.2"/>
<path class="st1" d="M494.1,491c7.8,0,12.5-4.7,12.5-10.3c0-5.1-2.9-7.7-7-9.4l-4.7-2c-2.9-1.2-5.5-2.2-5.5-4.9
	c0-2.6,2.2-4.1,5.5-4.1c3,0,5.3,1.1,7.6,3l3.1-3.9c-2.9-2.8-6.7-4.4-10.7-4.4c-6.8,0-11.7,4.3-11.7,9.8c0,5.1,3.6,7.8,7,9.3l4.8,2.1
	c3.1,1.3,5.4,2.2,5.4,5.1c0,2.7-2.1,4.5-6.1,4.5c-3.2,0-6.5-1.6-9-3.9l-3.6,4.2C484.9,489.1,489.4,491,494.1,491z"/>
</svg>
